<svg xmlns="http://www.w3.org/2000/svg" xmlns:xlink="http://www.w3.org/1999/xlink" width="400" zoomAndPan="magnify" viewBox="0 0 300 299.999988" height="400" preserveAspectRatio="xMidYMid meet" version="1.0"><defs><clipPath id="49cc4eb6da"><path d="M 2 41.0625 L 298 41.0625 L 298 259 L 2 259 Z M 2 41.0625 " clip-rule="nonzero"/></clipPath></defs><g clip-path="url(#49cc4eb6da)"><path fill="#ffffff" d="M 111.726562 40.648438 C 111.527344 40.648438 111.328125 40.664062 111.128906 40.675781 C 109.429688 40.808594 69.179688 44.273438 43.378906 65.035156 C 29.90625 77.492188 2.96875 150.308594 2.96875 213.265625 C 2.96875 214.375 3.253906 215.449219 3.804688 216.425781 C 22.394531 249.078125 73.105469 257.640625 84.65625 258.011719 L 84.863281 258.011719 C 86.910156 258.011719 88.832031 257.035156 90.03125 255.375 L 101.730469 239.320312 C 70.195312 231.167969 54.09375 217.320312 53.171875 216.503906 C 50.523438 214.164062 50.257812 210.144531 52.597656 207.496094 C 53.851562 206.066406 55.609375 205.332031 57.375 205.332031 C 58.871094 205.332031 60.386719 205.851562 61.601562 206.921875 C 61.992188 207.269531 91.640625 232.429688 149.972656 232.429688 C 208.414062 232.429688 238.078125 207.152344 238.371094 206.898438 C 239.585938 205.839844 241.101562 205.332031 242.601562 205.332031 C 244.363281 205.332031 246.109375 206.054688 247.378906 207.496094 C 249.703125 210.144531 249.460938 214.179688 246.828125 216.503906 C 245.894531 217.332031 229.777344 231.140625 198.246094 239.292969 L 209.941406 255.375 C 211.144531 257.035156 213.066406 258.011719 215.109375 258.011719 L 215.320312 258.011719 C 226.878906 257.652344 277.605469 249.09375 296.195312 216.425781 C 296.746094 215.464844 297.03125 214.375 297.03125 213.265625 C 297.03125 150.308594 270.085938 77.484375 256.28125 64.746094 C 230.828125 44.28125 190.582031 40.824219 188.871094 40.675781 C 188.699219 40.664062 188.5 40.648438 188.324219 40.648438 C 185.839844 40.648438 183.558594 42.125 182.527344 44.410156 C 182.449219 44.570312 181.574219 46.59375 180.597656 49.734375 C 197.425781 52.570312 218.089844 58.300781 236.804688 69.914062 C 239.796875 71.773438 240.726562 75.707031 238.867188 78.714844 C 237.664062 80.664062 235.574219 81.742188 233.4375 81.742188 C 232.285156 81.742188 231.125 81.429688 230.070312 80.777344 C 197.910156 60.847656 157.726562 59.839844 150 59.839844 C 142.273438 59.839844 102.089844 60.859375 69.957031 80.800781 C 68.902344 81.445312 67.738281 81.742188 66.589844 81.742188 C 64.449219 81.742188 62.347656 80.691406 61.132812 78.738281 C 59.261719 75.730469 60.203125 71.785156 63.195312 69.914062 C 81.910156 58.3125 102.585938 52.59375 119.429688 49.761719 C 118.441406 46.605469 117.539062 44.597656 117.472656 44.433594 C 116.441406 42.148438 114.199219 40.648438 111.726562 40.648438 Z M 150 86.570312 C 153.957031 86.570312 189.4375 87.046875 215.945312 103.488281 C 221.199219 106.75 227.222656 108.5 233.410156 108.5 C 238.664062 108.5 243.707031 107.300781 248.214844 105.054688 C 256.460938 125.8125 266.167969 158.503906 269.28125 192.09375 C 268.746094 191.34375 268.171875 190.621094 267.558594 189.925781 C 261.277344 182.722656 252.183594 178.625 242.625 178.625 C 234.644531 178.625 226.914062 181.484375 221.246094 186.402344 C 220.269531 187.191406 196.851562 205.722656 150 205.722656 C 103.164062 205.722656 79.757812 187.222656 79.25 186.820312 C 73.195312 181.515625 65.445312 178.597656 57.398438 178.597656 C 47.894531 178.597656 38.839844 182.671875 32.574219 189.769531 C 31.917969 190.507812 31.308594 191.28125 30.71875 192.066406 C 33.832031 158.503906 43.527344 125.746094 51.734375 105.003906 C 56.253906 107.261719 61.324219 108.476562 66.589844 108.476562 C 72.765625 108.476562 78.789062 106.75 84.027344 103.488281 C 110.5625 87.035156 146.042969 86.570312 150 86.570312 Z M 108.4375 123.199219 C 96.085938 123.199219 86.066406 134.640625 86.066406 148.757812 C 86.066406 162.871094 96.074219 174.316406 108.4375 174.316406 C 120.800781 174.316406 130.8125 162.871094 130.8125 148.757812 C 130.8125 134.628906 120.800781 123.199219 108.4375 123.199219 Z M 191.5625 123.199219 C 179.210938 123.199219 169.1875 134.640625 169.1875 148.757812 C 169.1875 162.871094 179.199219 174.316406 191.5625 174.316406 C 203.925781 174.316406 213.933594 162.871094 213.933594 148.757812 C 213.933594 134.628906 203.914062 123.199219 191.5625 123.199219 Z M 191.5625 123.199219 " fill-opacity="1" fill-rule="nonzero"/></g></svg>