<svg xmlns="http://www.w3.org/2000/svg" xmlns:xlink="http://www.w3.org/1999/xlink" width="400" zoomAndPan="magnify" viewBox="0 0 300 299.999988" height="400" preserveAspectRatio="xMidYMid meet" version="1.0"><defs><clipPath id="3e401568c7"><path d="M 42 2.625 L 71 2.625 L 71 58 L 42 58 Z M 42 2.625 " clip-rule="nonzero"/></clipPath><clipPath id="37b4767147"><path d="M 104 2.625 L 133 2.625 L 133 58 L 104 58 Z M 104 2.625 " clip-rule="nonzero"/></clipPath><clipPath id="9e9d7877f2"><path d="M 167 2.625 L 196 2.625 L 196 58 L 167 58 Z M 167 2.625 " clip-rule="nonzero"/></clipPath><clipPath id="0e1faaef41"><path d="M 229 2.625 L 258 2.625 L 258 58 L 229 58 Z M 229 2.625 " clip-rule="nonzero"/></clipPath></defs><path fill="#ffffff" d="M 127.230469 228.179688 C 125.390625 228.179688 123.832031 226.6875 123.761719 224.851562 C 123.691406 222.945312 125.183594 221.382812 127.089844 221.3125 L 226.046875 218.933594 C 232.230469 218.796875 237.191406 213.628906 236.992188 207.375 C 236.925781 205.816406 236.585938 204.3125 235.976562 202.960938 L 188.0625 100.199219 C 185.414062 94.628906 178.746094 92.179688 173.175781 94.765625 C 171.8125 95.378906 170.597656 96.328125 169.441406 97.550781 L 104.0625 171.839844 C 102.835938 173.261719 100.664062 173.402344 99.242188 172.175781 C 97.816406 170.882812 97.679688 168.777344 98.964844 167.355469 L 164.414062 92.996094 C 164.414062 92.996094 164.414062 92.996094 164.480469 92.929688 C 166.179688 91.023438 168.214844 89.597656 170.398438 88.582031 C 179.4375 84.363281 190.175781 88.304688 194.394531 97.355469 L 242.296875 200.113281 C 243.316406 202.355469 243.929688 204.738281 243.996094 207.246094 C 244.273438 217.234375 236.320312 225.601562 226.324219 225.800781 L 127.367188 228.109375 C 127.296875 228.179688 127.296875 228.179688 127.230469 228.179688 Z M 127.230469 228.179688 " fill-opacity="1" fill-rule="evenodd"/><path fill="#ffffff" d="M 70.277344 184.140625 Z M 99.90625 174.152344 L 71.769531 187.269531 C 58.316406 193.523438 52.464844 209.628906 58.71875 223.160156 C 64.972656 236.613281 81.078125 242.53125 94.609375 236.210938 L 122.746094 223.089844 Z M 83.191406 245.578125 C 70.414062 245.578125 58.175781 238.304688 52.46875 226.007812 C 44.582031 209.082031 51.921875 188.902344 68.847656 181.007812 L 100.113281 166.398438 C 100.929688 165.992188 101.878906 165.992188 102.761719 166.261719 C 103.640625 166.597656 104.320312 167.207031 104.734375 168.027344 L 130.429688 223.152344 C 131.25 224.851562 130.5 226.886719 128.800781 227.707031 L 97.535156 242.316406 C 92.839844 244.558594 87.941406 245.578125 83.191406 245.578125 Z M 83.191406 245.578125 " fill-opacity="1" fill-rule="evenodd"/><path fill="#ffffff" d="M 100.515625 240.960938 L 118.257812 279.023438 L 133.007812 272.160156 L 115.265625 234.097656 Z M 116.558594 287.039062 C 116.15625 287.039062 115.742188 286.96875 115.40625 286.832031 C 114.523438 286.496094 113.84375 285.882812 113.429688 285.0625 L 92.773438 240.816406 C 92.367188 239.996094 92.367188 239.046875 92.632812 238.167969 C 92.96875 237.289062 93.582031 236.605469 94.402344 236.261719 L 115.335938 226.472656 C 117.035156 225.652344 119.070312 226.402344 119.890625 228.101562 L 140.546875 272.347656 C 141.367188 274.046875 140.617188 276.082031 138.917969 276.902344 L 117.984375 286.691406 C 117.578125 286.898438 117.105469 287.039062 116.558594 287.039062 Z M 116.558594 287.039062 " fill-opacity="1" fill-rule="evenodd"/><path fill="#ffffff" d="M 229.316406 183.933594 C 228.023438 183.933594 226.867188 183.25 226.253906 182.027344 C 225.4375 180.328125 226.117188 178.292969 227.816406 177.402344 L 228.09375 177.265625 C 228.160156 177.265625 228.160156 177.195312 228.230469 177.195312 C 241.347656 171.28125 247.257812 155.789062 241.417969 142.671875 C 235.5 129.550781 220.078125 123.644531 206.960938 129.480469 L 206.011719 129.957031 C 204.3125 130.777344 202.277344 130.09375 201.386719 128.394531 C 200.507812 126.695312 201.25 124.660156 202.949219 123.773438 L 203.96875 123.230469 C 204.035156 123.230469 204.035156 123.160156 204.105469 123.160156 C 220.691406 115.75 240.261719 123.230469 247.671875 139.816406 C 255.082031 156.402344 247.601562 175.902344 231.085938 183.378906 L 230.878906 183.449219 C 230.402344 183.863281 229.859375 183.933594 229.316406 183.933594 Z M 229.316406 183.933594 " fill-opacity="1" fill-rule="evenodd"/><path fill="#ffffff" d="M 108.203125 33.527344 L 66.808594 33.527344 C 64.902344 33.527344 63.34375 31.964844 63.34375 30.058594 C 63.34375 28.152344 64.902344 26.59375 66.808594 26.59375 L 108.203125 26.59375 C 110.109375 26.59375 111.667969 28.152344 111.667969 30.058594 C 111.601562 32.035156 110.03125 33.527344 108.203125 33.527344 Z M 108.203125 33.527344 " fill-opacity="1" fill-rule="evenodd"/><path fill="#ffffff" d="M 233.191406 33.527344 L 191.867188 33.527344 C 189.960938 33.527344 188.398438 31.964844 188.398438 30.058594 C 188.398438 28.152344 189.960938 26.59375 191.867188 26.59375 L 233.191406 26.59375 C 235.097656 26.59375 236.65625 28.152344 236.65625 30.058594 C 236.585938 32.035156 235.097656 33.527344 233.191406 33.527344 Z M 233.191406 33.527344 " fill-opacity="1" fill-rule="evenodd"/><path fill="#ffffff" d="M 296.464844 299.949219 L 3.46875 299.949219 C 1.5625 299.949219 0 298.386719 0 296.480469 L 0 30.058594 C 0 28.152344 1.5625 26.59375 3.46875 26.59375 L 45.609375 26.59375 C 47.515625 26.59375 49.078125 28.152344 49.078125 30.058594 C 49.078125 31.964844 47.515625 33.527344 45.609375 33.527344 L 6.933594 33.527344 L 6.933594 293.085938 L 293.066406 293.085938 L 293.066406 33.527344 L 254.390625 33.527344 C 252.484375 33.527344 250.921875 31.964844 250.921875 30.058594 C 250.921875 28.152344 252.484375 26.59375 254.390625 26.59375 L 296.53125 26.59375 C 298.4375 26.59375 300 28.152344 300 30.058594 L 300 296.480469 C 299.863281 298.457031 298.371094 299.949219 296.464844 299.949219 Z M 296.464844 299.949219 " fill-opacity="1" fill-rule="evenodd"/><path fill="#ffffff" d="M 170.65625 33.527344 L 129.265625 33.527344 C 127.359375 33.527344 125.867188 31.964844 125.867188 30.058594 C 125.867188 28.152344 127.429688 26.59375 129.265625 26.59375 L 170.65625 26.59375 C 172.5625 26.59375 174.125 28.152344 174.125 30.058594 C 174.125 32.035156 172.5625 33.527344 170.65625 33.527344 Z M 170.65625 33.527344 " fill-opacity="1" fill-rule="evenodd"/><path fill="#ffffff" d="M 296.464844 79.472656 L 3.46875 79.472656 C 1.5625 79.472656 0 77.914062 0 76.007812 C 0 74.101562 1.5625 72.539062 3.46875 72.539062 L 296.464844 72.539062 C 298.371094 72.539062 299.929688 74.101562 299.929688 76.007812 C 299.863281 77.914062 298.371094 79.472656 296.464844 79.472656 Z M 296.464844 79.472656 " fill-opacity="1" fill-rule="evenodd"/><g clip-path="url(#3e401568c7)"><path fill="#ffffff" d="M 56.210938 9.601562 C 54.234375 9.601562 52.476562 10.351562 51.113281 11.707031 C 49.820312 13.070312 49.078125 14.828125 49.078125 16.664062 L 49.078125 43.378906 C 49.078125 47.320312 52.269531 50.511719 56.210938 50.511719 C 60.152344 50.511719 63.34375 47.320312 63.34375 43.378906 L 63.34375 16.675781 C 63.34375 12.800781 60.152344 9.601562 56.210938 9.601562 Z M 56.210938 57.382812 C 48.535156 57.382812 42.210938 51.132812 42.210938 43.386719 L 42.210938 16.675781 C 42.140625 13 43.574219 9.539062 46.222656 6.882812 C 48.871094 4.167969 52.40625 2.734375 56.210938 2.734375 C 63.886719 2.734375 70.207031 8.988281 70.207031 16.734375 L 70.207031 43.445312 C 70.207031 51.132812 63.957031 57.382812 56.210938 57.382812 Z M 56.210938 57.382812 " fill-opacity="1" fill-rule="evenodd"/></g><g clip-path="url(#37b4767147)"><path fill="#ffffff" d="M 118.734375 9.601562 C 114.792969 9.601562 111.601562 12.792969 111.601562 16.734375 L 111.601562 43.445312 C 111.601562 47.386719 114.792969 50.578125 118.734375 50.578125 C 122.675781 50.578125 125.867188 47.386719 125.867188 43.445312 L 125.867188 16.742188 C 125.867188 12.800781 122.675781 9.601562 118.734375 9.601562 Z M 118.734375 57.382812 C 111.058594 57.382812 104.734375 51.132812 104.734375 43.386719 L 104.734375 16.675781 C 104.734375 8.996094 110.988281 2.675781 118.734375 2.675781 C 126.410156 2.675781 132.734375 8.929688 132.734375 16.675781 L 132.734375 43.386719 C 132.664062 51.132812 126.417969 57.382812 118.734375 57.382812 Z M 118.734375 57.382812 " fill-opacity="1" fill-rule="evenodd"/></g><g clip-path="url(#9e9d7877f2)"><path fill="#ffffff" d="M 181.195312 9.601562 C 177.253906 9.601562 174.0625 12.792969 174.0625 16.734375 L 174.0625 43.445312 C 174.0625 47.386719 177.253906 50.578125 181.195312 50.578125 C 185.140625 50.578125 188.332031 47.386719 188.332031 43.445312 L 188.332031 16.742188 C 188.332031 12.800781 185.140625 9.601562 181.195312 9.601562 Z M 181.195312 57.382812 C 173.519531 57.382812 167.199219 51.132812 167.199219 43.386719 L 167.199219 16.742188 C 167.199219 9.066406 173.453125 2.746094 181.195312 2.746094 C 188.875 2.746094 195.195312 8.996094 195.195312 16.742188 L 195.195312 43.453125 C 195.195312 51.132812 188.941406 57.382812 181.195312 57.382812 Z M 181.195312 57.382812 " fill-opacity="1" fill-rule="evenodd"/></g><g clip-path="url(#0e1faaef41)"><path fill="#ffffff" d="M 243.722656 9.601562 C 239.777344 9.601562 236.585938 12.792969 236.585938 16.734375 L 236.585938 43.445312 C 236.585938 47.386719 239.777344 50.578125 243.722656 50.578125 C 247.664062 50.578125 250.855469 47.386719 250.855469 43.445312 L 250.855469 16.742188 C 250.863281 12.800781 247.664062 9.601562 243.722656 9.601562 Z M 243.722656 57.382812 C 236.042969 57.382812 229.722656 51.132812 229.722656 43.386719 L 229.722656 16.742188 C 229.722656 9.066406 235.976562 2.746094 243.722656 2.746094 C 251.398438 2.746094 257.71875 8.996094 257.71875 16.742188 L 257.71875 43.453125 C 257.726562 51.132812 251.40625 57.382812 243.722656 57.382812 Z M 243.722656 57.382812 " fill-opacity="1" fill-rule="evenodd"/></g></svg>