<svg xmlns="http://www.w3.org/2000/svg" xmlns:xlink="http://www.w3.org/1999/xlink" width="400" zoomAndPan="magnify" viewBox="0 0 300 299.999988" height="400" preserveAspectRatio="xMidYMid meet" version="1.0"><path fill="#ffffff" d="M 131.441406 17.140625 C 67.832031 24.191406 16 75.519531 8.324219 139.027344 C 8.078125 141.023438 7.871094 143.019531 7.707031 145.023438 C 7.546875 147.023438 7.425781 149.03125 7.351562 151.039062 C 7.273438 153.046875 7.238281 155.054688 7.25 157.0625 C 7.257812 159.070312 7.3125 161.078125 7.40625 163.085938 C 7.503906 165.09375 7.640625 167.097656 7.824219 169.097656 C 8.003906 171.097656 8.226562 173.09375 8.496094 175.085938 C 8.761719 177.078125 9.070312 179.0625 9.421875 181.042969 C 9.777344 183.019531 10.171875 184.988281 10.605469 186.949219 C 11.042969 188.910156 11.519531 190.863281 12.042969 192.800781 C 12.5625 194.742188 13.121094 196.671875 13.726562 198.589844 C 14.328125 200.503906 14.972656 202.40625 15.65625 204.296875 C 16.339844 206.1875 17.0625 208.058594 17.828125 209.917969 C 18.59375 211.777344 19.398438 213.617188 20.242188 215.441406 C 21.085938 217.261719 21.964844 219.066406 22.886719 220.855469 C 23.808594 222.640625 24.765625 224.40625 25.761719 226.148438 C 26.757812 227.894531 27.792969 229.617188 28.863281 231.316406 C 29.933594 233.015625 31.039062 234.695312 32.179688 236.347656 C 33.324219 238 34.5 239.628906 35.710938 241.230469 C 36.925781 242.832031 38.171875 244.410156 39.449219 245.957031 C 40.730469 247.507812 42.039062 249.027344 43.386719 250.519531 C 44.730469 252.011719 46.105469 253.476562 47.511719 254.910156 C 48.921875 256.34375 50.359375 257.746094 51.824219 259.121094 C 53.292969 260.492188 54.789062 261.832031 56.3125 263.140625 C 57.839844 264.449219 59.390625 265.722656 60.96875 266.964844 C 62.550781 268.207031 64.15625 269.414062 65.785156 270.585938 C 67.417969 271.761719 69.074219 272.898438 70.753906 274 C 72.433594 275.101562 74.136719 276.167969 75.863281 277.195312 C 77.585938 278.226562 79.335938 279.21875 81.101562 280.171875 C 82.871094 281.125 84.660156 282.039062 86.464844 282.917969 C 88.273438 283.796875 90.097656 284.632812 91.941406 285.433594 C 93.785156 286.234375 95.644531 286.992188 97.519531 287.710938 C 99.398438 288.429688 101.285156 289.109375 103.191406 289.75 C 110.210938 290.871094 112.457031 286.523438 112.457031 282.738281 L 112.457031 259.027344 C 73.601562 267.46875 65.332031 240.238281 65.332031 240.238281 C 58.894531 223.964844 49.761719 219.617188 49.761719 219.617188 C 36.992188 210.917969 50.753906 211.207031 50.753906 211.207031 C 64.773438 212.199219 72.210938 225.652344 72.210938 225.652344 C 84.414062 246.972656 105.027344 240.65625 113.023438 237.289062 C 114.285156 228.175781 117.988281 222 121.859375 218.496094 C 90.671875 214.988281 58.03125 202.925781 58.03125 149.492188 C 58.03125 133.925781 63.363281 121.441406 72.480469 111.484375 C 71.078125 107.976562 66.164062 93.390625 73.878906 74.457031 C 73.878906 74.457031 85.667969 70.664062 112.457031 88.765625 C 118.171875 87.226562 123.964844 86.066406 129.835938 85.292969 C 135.703125 84.515625 141.597656 84.128906 147.519531 84.128906 C 153.4375 84.128906 159.332031 84.515625 165.199219 85.292969 C 171.070312 86.066406 176.863281 87.226562 182.578125 88.765625 C 209.390625 70.664062 221.15625 74.457031 221.15625 74.457031 C 228.859375 93.390625 223.957031 107.976562 222.554688 111.484375 C 231.671875 121.414062 237.003906 133.925781 237.003906 149.492188 C 237.003906 203.0625 204.175781 214.851562 172.90625 218.355469 C 177.953125 222.703125 182.578125 231.261719 182.578125 244.300781 L 182.578125 282.738281 C 182.578125 286.523438 184.824219 291.011719 191.980469 289.75 C 194.015625 289.066406 196.03125 288.339844 198.03125 287.566406 C 200.03125 286.792969 202.011719 285.972656 203.976562 285.109375 C 205.9375 284.246094 207.878906 283.335938 209.800781 282.382812 C 211.71875 281.429688 213.617188 280.433594 215.492188 279.390625 C 217.367188 278.351562 219.21875 277.269531 221.042969 276.144531 C 222.871094 275.019531 224.667969 273.851562 226.441406 272.644531 C 228.210938 271.4375 229.957031 270.1875 231.671875 268.902344 C 233.382812 267.613281 235.070312 266.289062 236.722656 264.921875 C 238.378906 263.558594 240 262.15625 241.589844 260.71875 C 243.179688 259.277344 244.734375 257.804688 246.257812 256.292969 C 247.777344 254.785156 249.265625 253.238281 250.71875 251.660156 C 252.167969 250.082031 253.582031 248.472656 254.960938 246.828125 C 256.339844 245.183594 257.679688 243.511719 258.980469 241.808594 C 260.28125 240.101562 261.542969 238.367188 262.761719 236.605469 C 263.984375 234.84375 265.164062 233.054688 266.304688 231.238281 C 267.445312 229.421875 268.542969 227.578125 269.597656 225.714844 C 270.652344 223.847656 271.664062 221.957031 272.632812 220.042969 C 273.601562 218.128906 274.523438 216.195312 275.40625 214.242188 C 276.285156 212.285156 277.121094 210.3125 277.910156 208.316406 C 278.699219 206.324219 279.441406 204.3125 280.140625 202.285156 C 280.835938 200.257812 281.488281 198.214844 282.089844 196.15625 C 282.695312 194.097656 283.25 192.027344 283.757812 189.945312 C 284.269531 187.863281 284.730469 185.769531 285.140625 183.664062 C 285.554688 181.5625 285.917969 179.449219 286.234375 177.328125 C 286.550781 175.207031 286.820312 173.078125 287.039062 170.945312 C 287.257812 168.8125 287.425781 166.675781 287.546875 164.535156 C 287.667969 162.394531 287.738281 160.25 287.761719 158.109375 C 287.785156 155.964844 287.757812 153.820312 287.683594 151.675781 C 287.605469 149.535156 287.480469 147.394531 287.308594 145.257812 C 287.132812 143.121094 286.910156 140.988281 286.640625 138.859375 C 286.371094 136.734375 286.050781 134.613281 285.679688 132.5 C 285.3125 130.386719 284.894531 128.285156 284.429688 126.191406 C 283.964844 124.097656 283.453125 122.015625 282.894531 119.949219 C 282.332031 117.878906 281.726562 115.820312 281.070312 113.78125 C 280.417969 111.738281 279.714844 109.710938 278.96875 107.703125 C 278.222656 105.691406 277.429688 103.699219 276.589844 101.726562 C 275.75 99.753906 274.867188 97.800781 273.9375 95.867188 C 273.011719 93.933594 272.039062 92.023438 271.023438 90.132812 C 270.007812 88.246094 268.949219 86.382812 267.847656 84.542969 C 266.746094 82.703125 265.605469 80.886719 264.421875 79.101562 C 263.238281 77.3125 262.011719 75.550781 260.746094 73.820312 C 259.484375 72.089844 258.179688 70.386719 256.835938 68.714844 C 255.492188 67.042969 254.113281 65.402344 252.695312 63.796875 C 251.277344 62.1875 249.824219 60.609375 248.332031 59.070312 C 246.84375 57.527344 245.320312 56.019531 243.757812 54.546875 C 242.199219 53.074219 240.609375 51.640625 238.984375 50.242188 C 237.359375 48.84375 235.703125 47.480469 234.015625 46.15625 C 232.328125 44.832031 230.609375 43.550781 228.863281 42.304688 C 227.117188 41.0625 225.34375 39.855469 223.542969 38.695312 C 221.742188 37.53125 219.914062 36.410156 218.0625 35.328125 C 216.210938 34.25 214.332031 33.210938 212.433594 32.21875 C 210.535156 31.226562 208.613281 30.277344 206.667969 29.371094 C 204.722656 28.464844 202.761719 27.605469 200.777344 26.789062 C 198.792969 25.972656 196.792969 25.203125 194.773438 24.480469 C 192.757812 23.753906 190.722656 23.078125 188.671875 22.445312 C 186.625 21.816406 184.5625 21.230469 182.484375 20.695312 C 180.410156 20.160156 178.320312 19.671875 176.222656 19.230469 C 174.125 18.789062 172.015625 18.398438 169.898438 18.054688 C 167.785156 17.710938 165.660156 17.414062 163.53125 17.167969 C 161.398438 16.921875 159.265625 16.722656 157.125 16.574219 C 154.988281 16.425781 152.847656 16.324219 150.703125 16.273438 C 148.558594 16.222656 146.414062 16.222656 144.269531 16.269531 C 142.128906 16.316406 139.984375 16.414062 137.847656 16.558594 C 135.707031 16.703125 133.570312 16.898438 131.441406 17.140625 Z M 131.441406 17.140625 " fill-opacity="1" fill-rule="nonzero"/></svg>