<svg xmlns="http://www.w3.org/2000/svg" xmlns:xlink="http://www.w3.org/1999/xlink" width="400" zoomAndPan="magnify" viewBox="0 0 300 299.999988" height="400" preserveAspectRatio="xMidYMid meet" version="1.0"><defs><clipPath id="9a97e381e2"><path d="M 126 7.5 L 219 7.5 L 219 42 L 126 42 Z M 126 7.5 " clip-rule="nonzero"/></clipPath><clipPath id="7dcf5dcd6d"><path d="M 25 159 L 159 159 L 159 292.5 L 25 292.5 Z M 25 159 " clip-rule="nonzero"/></clipPath></defs><path fill="#9467fe" d="M 258.128906 25.757812 L 230.789062 25.757812 L 230.789062 40.941406 L 254.425781 40.941406 L 254.425781 252.035156 L 170.097656 252.035156 C 168.296875 257.363281 165.972656 262.441406 163.175781 267.222656 L 258.128906 267.222656 C 264.460938 267.222656 269.625 262.078125 269.625 255.738281 L 269.625 37.222656 C 269.625 30.902344 264.460938 25.757812 258.128906 25.757812 " fill-opacity="1" fill-rule="nonzero"/><path fill="#9467fe" d="M 90.617188 40.941406 L 114.257812 40.941406 L 114.257812 25.757812 L 86.898438 25.757812 C 80.5625 25.757812 75.417969 30.902344 75.417969 37.222656 L 75.417969 145.300781 C 80.339844 144.277344 85.40625 143.691406 90.617188 143.609375 L 90.617188 40.941406 " fill-opacity="1" fill-rule="nonzero"/><path fill="#9467fe" d="M 203.875 124.402344 L 110.035156 124.402344 L 110.035156 136.21875 L 203.875 136.21875 L 203.875 124.402344 " fill-opacity="1" fill-rule="nonzero"/><path fill="#9467fe" d="M 203.875 92.042969 L 110.035156 92.042969 L 110.035156 103.867188 L 203.875 103.867188 L 203.875 92.042969 " fill-opacity="1" fill-rule="nonzero"/><path fill="#9467fe" d="M 203.875 59.683594 L 110.035156 59.683594 L 110.035156 71.507812 L 203.875 71.507812 L 203.875 59.683594 " fill-opacity="1" fill-rule="nonzero"/><path fill="#9467fe" d="M 203.875 233.304688 L 203.875 221.472656 L 174.253906 221.472656 C 174.335938 222.914062 174.375 224.367188 174.375 225.835938 C 174.375 228.34375 174.253906 230.839844 174.023438 233.304688 L 203.875 233.304688 " fill-opacity="1" fill-rule="nonzero"/><path fill="#9467fe" d="M 233.371094 219.351562 C 233.050781 219.03125 232.523438 219.03125 232.199219 219.351562 L 223.648438 227.898438 L 219.886719 224.144531 C 219.566406 223.824219 219.039062 223.824219 218.71875 224.144531 L 216.753906 226.109375 C 216.433594 226.429688 216.433594 226.957031 216.753906 227.285156 L 223.0625 233.59375 C 223.386719 233.917969 223.90625 233.917969 224.234375 233.59375 L 235.335938 222.488281 C 235.664062 222.171875 235.664062 221.644531 235.335938 221.316406 L 233.371094 219.351562 " fill-opacity="1" fill-rule="nonzero"/><path fill="#9467fe" d="M 121.390625 197.382812 C 120.089844 196.089844 117.996094 196.089844 116.699219 197.382812 L 82.542969 231.535156 L 67.527344 216.542969 C 66.230469 215.253906 64.128906 215.253906 62.839844 216.542969 L 55 224.382812 C 53.710938 225.671875 53.710938 227.773438 55 229.066406 L 80.199219 254.292969 C 81.496094 255.582031 83.597656 255.582031 84.886719 254.292969 L 129.25 209.929688 C 130.539062 208.640625 130.539062 206.539062 129.25 205.25 L 121.390625 197.382812 " fill-opacity="1" fill-rule="nonzero"/><path fill="#9467fe" d="M 203.875 156.769531 L 136.714844 156.769531 C 141.941406 160.144531 146.773438 164.109375 151.097656 168.578125 L 203.875 168.578125 L 203.875 156.769531 " fill-opacity="1" fill-rule="nonzero"/><path fill="#9467fe" d="M 235.335938 156.472656 L 233.371094 154.503906 C 233.050781 154.1875 232.523438 154.1875 232.199219 154.503906 L 223.648438 163.054688 L 219.886719 159.308594 C 219.566406 158.980469 219.039062 158.980469 218.71875 159.308594 L 216.753906 161.265625 C 216.433594 161.59375 216.433594 162.113281 216.753906 162.4375 L 223.0625 168.753906 C 223.386719 169.074219 223.90625 169.074219 224.234375 168.753906 L 235.335938 157.652344 C 235.664062 157.324219 235.664062 156.796875 235.335938 156.472656 " fill-opacity="1" fill-rule="nonzero"/><path fill="#9467fe" d="M 203.875 189.664062 L 165.972656 189.664062 C 167.84375 193.453125 169.421875 197.386719 170.683594 201.476562 L 203.875 201.476562 L 203.875 189.664062 " fill-opacity="1" fill-rule="nonzero"/><path fill="#9467fe" d="M 235.335938 189.371094 L 233.371094 187.40625 C 233.050781 187.078125 232.523438 187.078125 232.199219 187.40625 L 223.648438 195.957031 L 219.886719 192.199219 C 219.566406 191.882812 219.039062 191.882812 218.71875 192.199219 L 216.753906 194.167969 C 216.433594 194.488281 216.433594 195.011719 216.753906 195.339844 L 223.0625 201.648438 C 223.386719 201.976562 223.90625 201.976562 224.234375 201.65625 L 235.335938 190.546875 C 235.664062 190.226562 235.664062 189.699219 235.335938 189.371094 " fill-opacity="1" fill-rule="nonzero"/><path fill="#9467fe" d="M 235.335938 124.054688 L 233.371094 122.085938 C 233.050781 121.757812 232.523438 121.757812 232.199219 122.085938 L 223.648438 130.636719 L 219.886719 126.878906 C 219.566406 126.554688 219.039062 126.554688 218.71875 126.878906 L 216.753906 128.839844 C 216.433594 129.167969 216.433594 129.695312 216.753906 130.019531 L 223.0625 136.328125 C 223.386719 136.65625 223.90625 136.65625 224.234375 136.328125 L 235.335938 125.226562 C 235.664062 124.898438 235.664062 124.378906 235.335938 124.054688 " fill-opacity="1" fill-rule="nonzero"/><path fill="#9467fe" d="M 235.335938 91.632812 L 233.371094 89.667969 C 233.050781 89.339844 232.523438 89.339844 232.199219 89.667969 L 223.648438 98.210938 L 219.886719 94.460938 C 219.566406 94.136719 219.039062 94.136719 218.71875 94.460938 L 216.753906 96.421875 C 216.433594 96.746094 216.433594 97.265625 216.753906 97.59375 L 223.0625 103.910156 C 223.386719 104.230469 223.90625 104.230469 224.234375 103.910156 L 235.335938 92.808594 C 235.664062 92.480469 235.664062 91.953125 235.335938 91.632812 " fill-opacity="1" fill-rule="nonzero"/><path fill="#9467fe" d="M 216.753906 64.003906 C 216.433594 64.320312 216.433594 64.847656 216.753906 65.175781 L 223.0625 71.492188 C 223.386719 71.808594 223.90625 71.808594 224.234375 71.492188 L 235.335938 60.386719 C 235.664062 60.0625 235.664062 59.535156 235.335938 59.207031 L 233.371094 57.242188 C 233.050781 56.921875 232.523438 56.921875 232.199219 57.242188 L 223.648438 65.792969 L 219.886719 62.035156 C 219.566406 61.714844 219.039062 61.714844 218.71875 62.035156 L 216.753906 64.003906 " fill-opacity="1" fill-rule="nonzero"/><g clip-path="url(#9a97e381e2)"><path fill="#9467fe" d="M 190.25 32.832031 C 185.589844 32.832031 181.8125 29.046875 181.8125 24.382812 C 181.8125 19.722656 185.589844 15.945312 190.25 15.945312 C 194.910156 15.945312 198.695312 19.722656 198.695312 24.382812 C 198.695312 29.046875 194.910156 32.832031 190.25 32.832031 Z M 154.789062 32.832031 C 150.125 32.832031 146.347656 29.046875 146.347656 24.382812 C 146.347656 19.722656 150.125 15.945312 154.789062 15.945312 C 159.449219 15.945312 163.234375 19.722656 163.234375 24.382812 C 163.234375 29.046875 159.449219 32.832031 154.789062 32.832031 Z M 218.957031 15.507812 C 218.957031 11.078125 215.378906 7.5 210.957031 7.5 L 134.074219 7.5 C 129.664062 7.5 126.085938 11.078125 126.085938 15.507812 L 126.085938 41.269531 L 218.957031 41.269531 L 218.957031 15.507812 " fill-opacity="1" fill-rule="nonzero"/></g><g clip-path="url(#7dcf5dcd6d)"><path fill="#9467fe" d="M 92.125 280.378906 C 62.050781 280.378906 37.582031 255.910156 37.582031 225.835938 C 37.582031 195.761719 62.050781 171.292969 92.125 171.292969 C 122.199219 171.292969 146.667969 195.761719 146.667969 225.835938 C 146.667969 255.910156 122.199219 280.378906 92.125 280.378906 Z M 92.125 159.171875 C 55.371094 159.171875 25.460938 189.074219 25.460938 225.835938 C 25.460938 262.597656 55.371094 292.5 92.125 292.5 C 128.886719 292.5 158.789062 262.597656 158.789062 225.835938 C 158.789062 189.074219 128.886719 159.171875 92.125 159.171875 " fill-opacity="1" fill-rule="nonzero"/></g></svg>