<?xml version="1.0" encoding="utf-8"?>
<svg width="400" zoomAndPan="magnify" viewBox="0 0 300 299.999988" height="400" preserveAspectRatio="xMidYMid meet" version="1.0" xmlns="http://www.w3.org/2000/svg">
  <path d="M 252.457031 211.675781 C 250.132812 209.71875 248.542969 207.210938 247.746094 204.273438 L 240.34375 177.105469 C 239.242188 173.007812 237.039062 169.273438 234.039062 166.214844 L 233.671875 165.847656 L 248.96875 130.175781 C 250.253906 127.117188 250.929688 123.875 250.929688 120.507812 L 250.929688 99.582031 C 250.929688 95.054688 253.070312 90.710938 256.679688 87.957031 L 299.816406 54.792969 L 251.539062 0.03125 L 211.644531 47.574219 C 209.6875 49.898438 207.179688 51.488281 204.242188 52.285156 L 177.074219 59.6875 C 172.976562 60.789062 169.242188 62.992188 166.183594 65.988281 L 165.816406 66.355469 L 130.144531 51.0625 C 127.085938 49.777344 123.84375 49.101562 120.476562 49.101562 L 99.550781 49.101562 C 95.023438 49.101562 90.679688 46.960938 87.925781 43.351562 L 54.761719 0.214844 L 46.992188 6.210938 L 59.78125 22.851562 L 25.453125 57.179688 L 6.242188 40.964844 L 0 48.429688 L 47.542969 88.324219 C 49.867188 90.28125 51.457031 92.789062 52.253906 95.726562 L 59.65625 122.894531 C 60.757812 126.992188 62.960938 130.726562 65.960938 133.785156 L 66.328125 134.152344 L 51.03125 169.824219 C 49.746094 172.882812 49.070312 176.125 49.070312 179.492188 L 49.070312 200.417969 C 49.070312 204.945312 46.929688 209.289062 43.320312 212.042969 L 0.183594 245.207031 L 48.398438 299.96875 L 88.292969 252.425781 C 90.25 250.101562 92.757812 248.511719 95.695312 247.714844 L 122.863281 240.3125 C 126.964844 239.210938 130.695312 237.007812 133.753906 234.011719 L 134.121094 233.644531 L 169.792969 248.9375 C 172.851562 250.222656 176.097656 250.898438 179.460938 250.898438 L 200.386719 250.898438 C 204.914062 250.898438 209.257812 253.039062 212.011719 256.648438 L 245.175781 299.785156 L 252.945312 293.789062 L 246.523438 285.46875 L 282.4375 249.550781 L 293.699219 258.972656 L 300 251.449219 Z M 173.160156 72.90625 C 174.933594 71.128906 177.199219 69.785156 179.707031 69.109375 L 206.875 61.707031 C 208.035156 61.402344 209.136719 60.972656 210.238281 60.542969 L 242.238281 92.546875 C 241.566406 94.808594 241.199219 97.195312 241.199219 99.644531 L 241.199219 120.570312 C 241.199219 122.589844 240.769531 124.484375 240.035156 126.382812 L 226.269531 158.503906 L 218.925781 151.164062 L 223.210938 132.683594 C 223.699219 130.542969 222.722656 128.339844 220.824219 127.300781 C 218.925781 126.257812 216.539062 126.566406 215.011719 128.09375 L 205.464844 137.640625 L 198.550781 130.726562 L 208.097656 121.179688 L 201.183594 114.265625 L 191.578125 123.875 C 189.007812 121.792969 185.824219 120.691406 182.460938 120.691406 C 181.910156 120.691406 181.359375 120.753906 180.808594 120.753906 L 194.269531 107.292969 L 187.355469 100.378906 L 169.367188 118.183594 C 166.980469 116.59375 164.164062 115.734375 161.226562 115.734375 C 159.941406 115.734375 158.71875 115.917969 157.554688 116.226562 L 180.316406 93.464844 L 173.402344 86.550781 L 138.222656 121.730469 C 135.957031 120.203125 133.328125 119.40625 130.695312 119.285156 C 130.511719 118.792969 130.449219 118.242188 130.449219 117.691406 C 130.449219 116.410156 130.941406 115.183594 131.859375 114.207031 Z M 61.675781 93.15625 C 60.699219 89.667969 59.046875 86.488281 56.71875 83.796875 L 85.90625 54.609375 C 89.945312 57.300781 94.71875 58.832031 99.613281 58.832031 L 120.539062 58.832031 C 122.558594 58.832031 124.453125 59.257812 126.351562 59.992188 L 158.472656 73.761719 L 151.132812 81.101562 L 132.652344 76.820312 C 130.511719 76.332031 128.308594 77.308594 127.269531 79.207031 C 126.230469 81.101562 126.535156 83.488281 128.066406 85.019531 L 137.609375 94.566406 L 130.695312 101.480469 L 121.148438 91.933594 L 114.234375 98.847656 L 123.84375 108.453125 C 121.761719 111.023438 120.660156 114.207031 120.660156 117.570312 C 120.660156 118.121094 120.722656 118.671875 120.722656 119.222656 L 107.261719 105.761719 L 100.347656 112.675781 L 115.398438 127.726562 L 108.421875 134.703125 L 93.371094 119.652344 L 87.375 125.648438 C 83.582031 122.464844 78.5625 121.121094 73.667969 122.097656 C 72.445312 122.34375 71.40625 123.015625 70.671875 124.058594 C 69.9375 122.894531 69.386719 121.609375 69.019531 120.261719 Z M 92.085938 132.195312 L 101.507812 141.617188 L 90.191406 152.9375 L 92.757812 141.738281 C 93.492188 138.558594 93.25 135.191406 92.085938 132.195312 Z M 126.78125 227.09375 C 125.003906 228.871094 122.742188 230.214844 120.234375 230.890625 L 93.066406 238.292969 C 91.902344 238.597656 90.800781 239.027344 89.699219 239.457031 L 57.699219 207.453125 C 58.371094 205.191406 58.738281 202.804688 58.738281 200.355469 L 58.738281 179.429688 C 58.738281 177.410156 59.167969 175.515625 59.902344 173.617188 L 77.890625 131.644531 C 79.238281 131.886719 80.523438 132.5 81.5 133.539062 C 83.09375 135.132812 83.703125 137.335938 83.152344 139.535156 L 76.730469 167.316406 C 76.238281 169.457031 77.21875 171.660156 79.113281 172.699219 C 81.011719 173.742188 83.398438 173.433594 84.925781 171.90625 L 126.472656 130.359375 C 128.371094 128.460938 131.492188 128.460938 133.386719 130.359375 C 134.304688 131.277344 134.796875 132.5 134.796875 133.847656 C 134.796875 135.132812 134.304688 136.355469 133.386719 137.335938 L 91.839844 178.878906 L 98.753906 185.792969 L 157.617188 126.933594 C 158.535156 126.015625 159.757812 125.523438 161.105469 125.523438 C 162.453125 125.523438 163.613281 126.015625 164.59375 126.933594 C 165.511719 127.851562 166 129.074219 166 130.421875 C 166 131.765625 165.511719 132.929688 164.59375 133.90625 L 105.730469 192.769531 L 112.644531 199.683594 L 161.105469 151.222656 C 163.003906 149.328125 166.121094 149.328125 168.019531 151.222656 C 168.9375 152.140625 169.425781 153.367188 169.425781 154.710938 C 169.425781 155.996094 168.9375 157.21875 168.019531 158.199219 L 119.558594 206.660156 L 126.472656 213.574219 L 161.105469 178.941406 C 162.023438 178.023438 163.246094 177.535156 164.59375 177.535156 C 165.9375 177.535156 167.101562 178.023438 168.082031 178.941406 C 169 179.859375 169.488281 181.082031 169.488281 182.429688 C 169.488281 183.773438 169 184.9375 168.082031 185.917969 Z M 227.738281 261.117188 L 219.785156 250.714844 C 215.195312 244.71875 207.914062 241.167969 200.386719 241.167969 L 179.460938 241.167969 C 177.441406 241.167969 175.546875 240.742188 173.648438 240.007812 L 141.527344 226.238281 L 148.867188 218.898438 L 167.347656 223.179688 C 167.714844 223.242188 168.082031 223.300781 168.449219 223.300781 C 170.222656 223.300781 171.875 222.382812 172.730469 220.792969 C 173.769531 218.898438 173.464844 216.511719 171.9375 214.980469 L 162.390625 205.433594 L 169.304688 198.519531 L 178.851562 208.066406 L 185.765625 201.152344 L 176.15625 191.546875 C 178.238281 188.976562 179.339844 185.792969 179.339844 182.429688 C 179.339844 181.878906 179.277344 181.328125 179.277344 180.777344 L 192.738281 194.238281 L 199.652344 187.324219 L 176.21875 163.890625 C 178.300781 161.320312 179.398438 158.136719 179.398438 154.773438 C 179.398438 154.222656 179.339844 153.671875 179.339844 153.121094 L 206.628906 180.410156 L 213.542969 173.496094 L 178.910156 138.863281 C 177.992188 137.945312 177.503906 136.722656 177.503906 135.375 C 177.503906 134.03125 177.992188 132.867188 178.910156 131.886719 C 179.828125 130.972656 181.050781 130.480469 182.398438 130.480469 C 183.683594 130.480469 184.90625 130.972656 185.886719 131.886719 L 227.1875 173.191406 C 228.960938 174.964844 230.308594 177.226562 230.980469 179.738281 L 238.382812 206.902344 C 239.730469 211.738281 242.421875 215.960938 246.277344 219.203125 L 259.066406 229.972656 Z M 227.738281 261.117188 " fill-opacity="1" fill-rule="nonzero" style="fill: rgb(237, 234, 242);"/>
  <path fill="#9467fe" d="M 21.355469 79.085938 C 9.421875 100.683594 3.121094 125.21875 3.121094 150 C 3.121094 173.128906 8.320312 195.277344 18.660156 215.835938 L 27.410156 211.433594 C 17.804688 192.28125 12.910156 171.597656 12.910156 150 C 12.910156 126.871094 18.785156 103.988281 29.921875 83.855469 Z M 21.355469 79.085938 " fill-opacity="1" fill-rule="nonzero"/>
  <path fill="#9467fe" d="M 149.96875 287.058594 C 126.839844 287.058594 103.957031 281.183594 83.828125 270.050781 L 79.113281 278.613281 C 100.652344 290.546875 125.1875 296.847656 149.96875 296.847656 C 173.097656 296.847656 195.246094 291.648438 215.808594 281.308594 L 211.402344 272.558594 C 192.25 282.164062 171.570312 287.058594 149.96875 287.058594 Z M 149.96875 287.058594 " fill-opacity="1" fill-rule="nonzero"/>
  <path fill="#9467fe" d="M 278.585938 220.914062 C 290.515625 199.316406 296.816406 174.78125 296.816406 150 C 296.816406 126.871094 291.617188 104.722656 281.277344 84.164062 L 272.527344 88.566406 C 282.132812 107.71875 287.027344 128.402344 287.027344 150 C 287.027344 173.128906 281.15625 196.011719 270.019531 216.144531 Z M 278.585938 220.914062 " fill-opacity="1" fill-rule="nonzero"/>
  <path fill="#9467fe" d="M 149.96875 12.941406 C 173.097656 12.941406 195.980469 18.816406 216.113281 29.949219 L 220.824219 21.386719 C 199.285156 9.453125 174.75 3.152344 149.96875 3.152344 C 126.839844 3.152344 104.691406 8.351562 84.132812 18.691406 L 88.539062 27.441406 C 107.6875 17.835938 128.371094 12.941406 149.96875 12.941406 Z M 149.96875 12.941406 " fill-opacity="1" fill-rule="nonzero"/>
</svg>