<svg xmlns="http://www.w3.org/2000/svg" xmlns:xlink="http://www.w3.org/1999/xlink" width="400" zoomAndPan="magnify" viewBox="0 0 300 299.999988" height="400" preserveAspectRatio="xMidYMid meet" version="1.0"><path fill="#ffffff" d="M 211.035156 92.121094 L 185.507812 212.171875 C 184.246094 218.113281 177.167969 220.765625 172.242188 217.226562 L 111.457031 171.988281 L 178.558594 111.332031 C 178.558594 111.332031 183.109375 107.667969 181.84375 106.527344 C 180.453125 105.140625 175.527344 108.171875 172.871094 109.941406 C 170.34375 111.710938 90.734375 162.003906 90.734375 162.003906 L 50.546875 149.367188 C 46 147.976562 46 141.785156 52.570312 139.007812 L 200.925781 81.886719 C 207.246094 78.726562 212.425781 86.058594 211.035156 92.121094 Z M 211.035156 92.121094 " fill-opacity="1" fill-rule="nonzero"/><path fill="#ffffff" d="M 150 300 C 67.355469 300 0 232.773438 0 150 C 0 67.355469 67.355469 0 150 0 C 232.773438 0 300 67.355469 300 150 C 300 232.773438 232.773438 300 150 300 Z M 150 8.214844 C 71.777344 8.214844 8.214844 71.777344 8.214844 150 C 8.214844 228.222656 71.777344 291.785156 150 291.785156 C 228.222656 291.785156 291.785156 228.222656 291.785156 150 C 291.785156 71.777344 228.222656 8.214844 150 8.214844 Z M 150 8.214844 " fill-opacity="1" fill-rule="nonzero"/></svg>